<?xml version="1.0" encoding="iso-8859-1"?>
<!-- Generator: Adobe Illustrator 19.0.0, SVG Export Plug-In . SVG Version: 6.00 Build 0)  -->
<svg version="1.1" id="Layer_1" xmlns="http://www.w3.org/2000/svg" xmlns:xlink="http://www.w3.org/1999/xlink" x="0px" y="0px"
	 viewBox="0 0 511.673 511.673" style="enable-background:new 0 0 511.673 511.673;" xml:space="preserve">
<path style="fill:#F6BB42;" d="M511.672,255.837c0,141.284-114.551,255.836-255.836,255.836C114.544,511.673,0,397.121,0,255.837
	C0,114.537,114.544,0.001,255.836,0.001C397.121,0.001,511.672,114.537,511.672,255.837z"/>
<g>
	<path style="fill:#FFCE54;" d="M505.676,200.528c-1.529-6.964-3.357-13.835-5.449-20.596L331.288,225.2l151.529-87.491
		c-3.279-6.324-6.84-12.476-10.635-18.472l-151.543,87.491L444.402,82.947c-4.793-5.246-9.806-10.274-15.037-15.1l-123.81,123.812
		l87.6-151.715c-5.996-3.81-12.133-7.402-18.441-10.712l-87.615,151.762L332.46,11.681c-6.746-2.124-13.616-3.966-20.596-5.528
		l-45.37,169.329V0.219c-3.536-0.156-7.089-0.218-10.657-0.218c-3.568,0-7.12,0.062-10.657,0.218v175.263L199.81,6.153
		c-6.98,1.562-13.851,3.404-20.596,5.528l45.369,169.313L136.967,29.232c-6.309,3.31-12.461,6.886-18.441,10.712l87.592,151.715
		L82.307,67.848c-5.223,4.825-10.244,9.854-15.045,15.1l123.78,123.78L39.49,119.237c-3.794,5.996-7.347,12.148-10.642,18.472
		L180.384,225.2L11.446,179.933c-2.093,6.761-3.912,13.632-5.45,20.596l168.868,45.252H0.195C0.063,249.122,0,252.464,0,255.837
		c0,3.779,0.086,7.526,0.25,11.273h174.615L6.254,312.285c1.569,6.979,3.427,13.851,5.551,20.597l168.58-45.19L29.34,374.917
		c3.326,6.293,6.902,12.43,10.72,18.426l150.989-87.179L67.847,429.351c4.825,5.231,9.861,10.243,15.1,15.053l123.171-123.171
		l-87.069,150.825c5.988,3.795,12.148,7.354,18.464,10.665l87.077-150.825l-45.072,168.189c6.753,2.107,13.624,3.935,20.604,5.496
		l45.057-168.158v174.029c3.537,0.141,7.089,0.219,10.657,0.219c3.568,0,7.121-0.078,10.657-0.219V337.409l45.058,168.174
		c6.979-1.562,13.85-3.389,20.611-5.496l-45.064-168.189l87.068,150.825c6.309-3.311,12.461-6.87,18.457-10.665l-87.068-150.825
		l123.171,123.17c5.247-4.81,10.274-9.821,15.1-15.053L320.639,306.164l150.965,87.179c3.826-5.996,7.402-12.133,10.729-18.441
		l-151.045-87.21l168.58,45.19c2.124-6.746,3.982-13.617,5.559-20.597l-168.61-45.175h174.606c0.156-3.747,0.25-7.494,0.25-11.273
		c0-3.373-0.062-6.715-0.188-10.056h-174.67L505.676,200.528z"/>
	<path style="fill:#FFCE54;" d="M479.693,257.164c0,123.624-100.218,223.856-223.857,223.856
		c-123.632,0-223.856-100.232-223.856-223.856S132.204,33.308,255.836,33.308C379.476,33.308,479.693,133.54,479.693,257.164z"/>
</g>
<g>
	<path style="fill:#F6BB42;" d="M253.08,74.984c-5.692,1.53-9.064,7.371-7.542,13.054s7.37,9.057,13.054,7.526
		c5.691-1.515,9.064-7.37,7.543-13.054C264.611,76.826,258.764,73.454,253.08,74.984z"/>
	<path style="fill:#F6BB42;" d="M253.08,416.094c-5.692,1.515-9.064,7.37-7.542,13.054c1.522,5.7,7.37,9.072,13.054,7.542
		c5.691-1.53,9.064-7.37,7.543-13.054C264.611,417.952,258.764,414.579,253.08,416.094z"/>
	<path style="fill:#F6BB42;" d="M163.021,100.593c-4.162,4.153-4.162,10.899,0,15.068s10.915,4.169,15.076,0
		c4.162-4.169,4.162-10.915,0-15.068C173.936,96.423,167.182,96.423,163.021,100.593z"/>
	<path style="fill:#F6BB42;" d="M333.567,395.997c-4.153,4.169-4.153,10.915,0,15.084c4.169,4.153,10.931,4.153,15.085,0
		c4.152-4.169,4.152-10.915,0-15.084C344.498,391.844,337.736,391.844,333.567,395.997z"/>
	<path style="fill:#F6BB42;" d="M105.37,180.854c5.684,1.53,11.531-1.843,13.054-7.542c1.53-5.684-1.85-11.54-7.534-13.054
		c-5.691-1.515-11.532,1.858-13.054,7.542S99.686,179.323,105.37,180.854z"/>
	<path style="fill:#F6BB42;" d="M406.303,330.82c-5.685-1.53-11.524,1.843-13.055,7.526s1.843,11.539,7.526,13.054
		c5.7,1.53,11.54-1.843,13.069-7.526C415.359,338.191,411.986,332.335,406.303,330.82z"/>
	<path style="fill:#F6BB42;" d="M82.525,245.531c-5.692,1.53-9.065,7.37-7.542,13.054s7.371,9.072,13.054,7.542
		c5.692-1.515,9.064-7.37,7.542-13.054C94.049,247.389,88.209,244.017,82.525,245.531z"/>
	<path style="fill:#F6BB42;" d="M436.69,253.073c-1.531-5.684-7.371-9.057-13.055-7.542c-5.684,1.53-9.057,7.37-7.526,13.054
		c1.515,5.684,7.354,9.072,13.054,7.542C434.847,264.612,438.219,258.757,436.69,253.073z"/>
	<path style="fill:#F6BB42;" d="M100.592,333.568c-4.162,4.169-4.162,10.915,0,15.084c4.161,4.153,10.915,4.153,15.076,0
		c4.162-4.169,4.162-10.915,0-15.084C111.507,329.415,104.753,329.415,100.592,333.568z"/>
	<path style="fill:#F6BB42;" d="M395.996,163.022c-4.153,4.153-4.153,10.899,0,15.068c4.17,4.169,10.931,4.169,15.084,0
		c4.154-4.169,4.154-10.915,0-15.068C406.927,158.852,400.166,158.852,395.996,163.022z"/>
	<path style="fill:#F6BB42;" d="M173.318,393.249c-5.684-1.53-11.531,1.843-13.054,7.526s1.85,11.539,7.534,13.054
		c5.684,1.53,11.532-1.842,13.054-7.526C182.383,400.619,179.003,394.764,173.318,393.249z"/>
	<path style="fill:#F6BB42;" d="M338.346,118.425c5.699,1.53,11.539-1.843,13.07-7.542c1.514-5.684-1.859-11.54-7.543-13.054
		s-11.523,1.858-13.054,7.542S332.662,116.895,338.346,118.425z"/>
</g>
<path style="fill:#ED5564;" d="M255.836,149.233c-52.981,0-95.938,42.957-95.938,95.938c0,28.403,12.352,53.935,31.979,71.501
	v35.103h127.918v-35.103c19.629-17.566,31.979-43.098,31.979-71.501C351.774,192.191,308.818,149.233,255.836,149.233z"/>
<g>
	<path style="fill:#DA4453;" d="M223.857,341.11c-5.887,0-10.657,4.763-10.657,10.665h21.314
		C234.514,345.873,229.743,341.11,223.857,341.11z"/>
	<path style="fill:#DA4453;" d="M245.179,341.11c-5.887,0-10.665,4.763-10.665,10.665h21.322
		C255.836,345.873,251.066,341.11,245.179,341.11z"/>
	<path style="fill:#DA4453;" d="M266.493,341.11c-5.887,0-10.657,4.763-10.657,10.665h21.33
		C277.166,345.873,272.389,341.11,266.493,341.11z"/>
	<path style="fill:#DA4453;" d="M287.815,341.11c-5.887,0-10.649,4.763-10.649,10.665h21.299
		C298.465,345.873,293.703,341.11,287.815,341.11z"/>
	<path style="fill:#DA4453;" d="M319.795,351.76c0-5.887-4.777-10.649-10.649-10.649c-5.902,0-10.681,4.763-10.681,10.665h21.33
		V351.76z"/>
	<path style="fill:#DA4453;" d="M202.534,341.11c-5.887,0-10.657,4.763-10.657,10.665h21.322
		C213.199,345.873,208.421,341.11,202.534,341.11z"/>
</g>
<g>
	<path style="fill:#434A54;" d="M234.514,234.507c0,5.902-4.771,10.665-10.657,10.665s-10.657-4.763-10.657-10.665
		c0-5.871,4.771-10.649,10.657-10.649S234.514,228.636,234.514,234.507z"/>
	<path style="fill:#434A54;" d="M298.465,234.507c0,5.902-4.762,10.665-10.649,10.665s-10.649-4.763-10.649-10.665
		c0-5.871,4.763-10.649,10.649-10.649C293.703,223.858,298.465,228.636,298.465,234.507z"/>
	<path style="fill:#434A54;" d="M261.168,287.816c0,5.871-4.777,10.649-10.665,10.649c-5.887,0-10.657-4.778-10.657-10.649
		c0-5.902,4.771-10.665,10.657-10.665C256.391,277.151,261.168,281.914,261.168,287.816z"/>
	<path style="fill:#434A54;" d="M271.826,287.816c0,5.871-4.771,10.649-10.658,10.649c-5.886,0-10.665-4.778-10.665-10.649
		c0-5.902,4.778-10.665,10.665-10.665C267.056,277.151,271.826,281.914,271.826,287.816z"/>
</g>
<g>
</g>
<g>
</g>
<g>
</g>
<g>
</g>
<g>
</g>
<g>
</g>
<g>
</g>
<g>
</g>
<g>
</g>
<g>
</g>
<g>
</g>
<g>
</g>
<g>
</g>
<g>
</g>
<g>
</g>
</svg>
